<?xml version="1.0" encoding="utf-8"?>
<!-- Generator: Adobe Illustrator 22.0.2, SVG Export Plug-In . SVG Version: 6.00 Build 0)  -->
<svg version="1.1" xmlns="http://www.w3.org/2000/svg" xmlns:xlink="http://www.w3.org/1999/xlink" x="0px" y="0px"
	 viewBox="0 0 1210.3 308.6" style="enable-background:new 0 0 1210.3 308.6;" xml:space="preserve">
<style type="text/css">
	.st0{fill:#FFFFFF;}
	.st1{fill:none;stroke:#92C1BE;stroke-width:3.5;stroke-miterlimit:10;}
	.st2{fill:none;stroke:#FFFFFF;stroke-width:3.5;stroke-miterlimit:10;}
	.st3{fill:#92C1BE;}
	.st4{fill:#FFFFFF;stroke:#FFFFFF;stroke-miterlimit:10;}
	.st5{fill:none;stroke:#FFFFFF;stroke-miterlimit:10;}
</style>
<g id="レイヤー_1">
	<g id="レイヤー_2_1_">
		<g>
			<g>
				<g>
					<g>
						<path class="st0" d="M173.1,261.7c-5.3,0-9.9-1-13.8-3c-3.8-2-6.9-4.6-9.2-7.8c-2.3-3.3-3.8-7-4.5-11.3s-0.5-8.9,0.7-13.8
							c0.7-3.3,1.9-7.6,3.5-13.1s3.3-11.4,5.1-17.8s3.4-12.8,4.9-19.2s2.5-12.2,3-17.4s0.2-9.5-0.7-12.9s-2.9-5.1-5.9-5.1
							c-3.7,0-7.6,1.2-11.5,3.7s-8,5.8-12,9.9c-4.1,4.2-8.1,9-12.2,14.5s-8.1,11.1-12,16.9c-2.1,7.9-3.8,14.8-5.2,20.7
							c-1.4,5.9-2.6,11.3-3.7,16c-1,4.8-2,8.9-3,12.6c-0.9,3.6-1.7,7-2.4,10.3c-0.7,2.3-2.8,4.6-6.3,6.8s-7.2,4-11.2,5.4
							c-4,1.4-7.4,2.1-10.3,2.1s-4.1-1-3.7-3.1c0.2-1.4,1-4.5,2.3-9.4c1.3-4.9,2.8-10.6,4.5-17.3c1.7-6.6,3.5-13.7,5.4-21.1
							c1.9-7.4,3.6-14.5,5.2-21.3c1.2-5.3,2.4-11.3,3.8-17.8c1.2-5.6,2.6-12.1,4.4-19.5c1.7-7.4,5.1-20.1,7.5-28.9
							c1.6-1.4,3.3-2.5,5.1-3.3c1.7-0.8,3.5-1.5,5.4-1.9c1.9-0.7,3.8-1.2,5.9-1.4c1.9,0,3.7,0.1,5.6,0.3c1.6,0.2,3.3,0.6,5.1,1.2
							c1.7,0.6,3.3,1.5,4.7,2.6c-0.7,1.6-1.5,3.9-2.4,6.8s-3.2,10.5-4.2,13.8c-0.9,3.7-2.1,7.6-3.5,11.5c3-4.2,6.5-8.4,10.3-12.7
							s8-8.2,12.6-11.7c4.5-3.5,9.4-6.3,14.5-8.5s10.3-3.3,15.7-3.3c4.4,0,8.4,1.3,11.9,3.8c3.5,2.6,6.2,6.1,8.2,10.6
							s3.1,9.9,3.5,16.2c0.3,6.3-0.5,13.1-2.6,20.6l-3.8,15.3c-1.2,4.9-2.6,10.6-4.4,17.3c-1.7,6.6-3.9,13.9-6.5,21.8
							c-1.4,5.1-1.9,9.5-1.6,13.2c0.3,3.7,2.6,5.6,6.8,5.6s9.5-2.6,15.9-7.7s12.8-11.3,19.4-18.5c6.5-7.2,12.7-14.6,18.5-22.1
							c5.8-7.6,10.2-13.7,13.2-18.3c2.1-3,4.1-5,5.9-5.9c1.8-0.9,3.3-1,4.4-0.3c1,0.7,1.6,2.3,1.6,4.7s-0.9,5.5-2.8,9.2
							c-1.6,3.3-4.1,7.6-7.5,12.9c-3.4,5.3-7.4,11-12,17.1c-4.6,6-9.6,12.1-15,18.3c-5.3,6.2-10.9,11.7-16.7,16.7
							s-11.6,9.1-17.3,12.2C183.7,260.1,178.2,261.7,173.1,261.7L173.1,261.7z"/>
						<path class="st0" d="M392.4,180.4c-7,10.2-14.9,20.2-23.7,29.8c-8.8,9.6-18.2,18.2-28.1,25.8s-20,13.7-30.3,18.3
							c-10.3,4.6-20.4,7-30.2,7c-5.1,0-10.6-1.2-16.6-3.7c-5.9-2.4-11.3-6.2-16.2-11.3s-8.8-11.7-11.7-19.9
							c-2.9-8.1-3.8-18-2.6-29.6c0.9-9.5,3.9-19.6,8.9-30.2c5-10.6,11.2-20.3,18.5-29.1c7.3-8.8,15.6-16.2,24.8-22
							s18.4-8.7,27.7-8.7c8.8,0,15.2,2.2,19.2,6.6s5.7,9.9,5.2,16.4c-0.7,7.2-2.7,13.8-6.1,19.9s-7.4,11.5-12,16.4
							s-9.6,9.3-14.8,13.2c-5.2,4-10.2,7.6-14.8,10.8c-5.1,3.5-10,6.8-14.6,9.9c-4.6,3.1-8.7,6-12.2,8.5c0.2,5.8,1.3,10.7,3.1,14.6
							c1.9,4,4.2,7.1,7,9.6c2.8,2.4,6,4.2,9.6,5.2s7.3,1.6,11,1.6c7.9,0,16.2-2.5,24.8-7.5c8.6-5,17-11,25.3-18.1s15.9-14.5,23-22.1
							s13-14.3,17.6-19.9c1.6-1.9,3.3-3,5.1-3.3s3.1-0.1,4.2,0.7c1,0.8,1.6,2.2,1.6,4.2C394.9,175.6,394.1,177.9,392.4,180.4
							 M303.2,126.7c-2.8,0-6.1,1.4-9.9,4.2s-7.6,6.8-11.3,12c-3.7,5.2-7.2,11.6-10.5,19.2c-3.3,7.6-5.7,16.2-7.3,26
							c2.8-2.1,5.8-4.2,9.1-6.5c3.3-2.2,6.5-4.6,9.8-7.1c10-7.7,17-14.4,20.9-20.2c4-5.8,6.2-10.8,6.6-15c0.5-4.4,0-7.6-1.4-9.6
							C307.7,127.7,305.7,126.7,303.2,126.7L303.2,126.7z"/>
						<path class="st0" d="M354.1,251.2c-1.6,2.6-3.4,4.2-5.4,5.1c-2,0.8-3.7,0.9-5.2,0.3c-1.5-0.6-2.5-1.8-3-3.7s0-4.2,1.4-7
							c0.7-1.4,2.3-4.5,4.7-9.4s5.3-10.8,8.7-17.6c3.4-6.9,7-14.3,11-22.3s7.7-15.6,11.3-22.8c3.6-7.2,6.9-13.7,9.9-19.4
							s5.2-9.8,6.6-12.4c-2.6-2.3-4.3-4-5.2-5.1c-0.9-1-1.6-3.3-2.1-6.8c-0.5-3,0.2-7,2.1-11.9s4.3-9.6,7.3-14.1s6.4-8.4,10.1-11.7
							c3.7-3.3,7.3-4.9,10.8-4.9c6.5,0,11.1,2.1,13.8,6.3s4.2,8.5,4.7,12.9c0.5,3,0.2,6.9-0.7,11.5c-0.9,4.6-2.7,8.8-5.2,12.6
							c0.7,0.5,1.6,1,2.8,1.6c1.2,0.6,3,0.9,5.6,0.9c3.7,0,6.3-0.2,7.8-0.7s3.9-0.7,7.1-0.7c4,0,7.2,1,9.8,3c2.6,2,4.6,4.4,6.3,7.3
							c1.6,2.9,2.8,6,3.7,9.4c0.8,3.4,1.3,6.5,1.6,9.2c0.7,5.8-0.8,11.9-4.5,18.1c-3.7,6.3-8.3,13.1-13.6,20.6
							c-3.3,4.6-6.5,9.9-9.8,15.7s-4.6,11-4.2,15.7c0.5,3,1.3,5.5,2.4,7.3s4.4,2.8,9.8,2.8c4,0,8.3-1.5,13.1-4.4s9.6-6.6,14.6-11.2
							s9.9-9.5,14.8-15s9.4-10.8,13.6-16s7.7-9.9,10.6-14.1c2.9-4.2,5.1-7.2,6.5-9.1c1.2-1.9,2.7-3.1,4.5-3.8c1.9-0.7,3.5-0.7,4.9,0
							s2.3,2.1,2.6,4.2c0.3,2.1-0.5,4.9-2.6,8.4c-1.4,2.3-3.8,6-7.1,11.2c-3.4,5.1-7.4,10.8-12.2,17.1s-10.1,12.7-15.9,19.4
							s-11.9,12.7-18.3,18.1c-6.4,5.5-12.8,9.9-19.2,13.4c-6.4,3.5-12.5,5.2-18.3,5.2c-6,0-11-1.2-15-3.5s-7.1-5.2-9.6-8.5
							c-2.4-3.4-4.2-7.1-5.2-11.2c-1-4.1-1.5-7.8-1.2-11.3c0.2-2.8,1-5.8,2.3-8.9c1.3-3.1,2.8-6.4,4.5-9.8c1.7-3.4,3.6-6.7,5.6-10.1
							c2-3.4,3.8-6.7,5.4-9.9c4-6.7,7.1-12.5,9.6-17.3c2.4-4.8,3.7-8.8,3.7-12c0-2.1-0.5-4-1.4-5.6s-2.4-2.4-4.5-2.4
							c-1.4,0-2.4,0.1-3,0.2c-0.6,0.1-1.2,0.2-1.7,0.2s-1.4,0.1-2.4,0.2c-1,0.1-2.6,0.2-4.7,0.2c-3,0-5.6-0.5-7.7-1.4
							s-4.1-1.6-5.9-2.1c-0.9,1.6-3,5.1-6.3,10.5c-3.3,5.3-7,11.6-11.3,18.8s-8.8,14.8-13.6,22.7c-4.8,7.9-9.2,15.3-13.4,22.1
							c-4.2,6.9-7.7,12.7-10.6,17.4S354.8,250.3,354.1,251.2L354.1,251.2z"/>
						<path class="st0" d="M541,121.8c1.2-1.4,3.4-2.6,6.6-3.5c3.3-0.9,6.6-1.7,10.1-2.3c3.5-0.6,6.7-0.9,9.6-1
							c2.9-0.1,4.6-0.1,5.1,0.2c0.2,0.2-0.3,2.7-1.7,7.3c-1.4,4.6-3.1,10.1-5.2,16.4c-2.1,6.3-4.3,12.7-6.6,19.4
							c-2.3,6.6-4.1,12-5.2,16.2s-2.6,8.9-4.2,14.1c-1.6,5.2-3.1,10.3-4.4,15.3c-1.3,5-2.2,9.7-2.6,14.1c-0.5,4.4-0.1,7.8,1,10.1
							c1.2,2.8,2.4,4.7,3.8,5.8c1.4,1,2.9,1.6,4.5,1.6c4.6,0,10.5-2.6,17.6-7.7s14.3-11.2,21.6-18.3s14.1-14.3,20.4-21.6
							c6.3-7.3,10.9-13.2,13.9-17.6c1.9-2.3,3.8-3.8,5.8-4.5s3.6-0.6,4.9,0.3c1.3,0.9,2,2.4,2.1,4.5s-0.6,4.5-2.3,7.3
							c-3.7,6.5-9.2,14.2-16.4,23.2s-14.9,17.6-23,25.8s-16.1,15.3-23.9,21.1c-7.8,5.8-14.1,8.8-19,9.1c-4,0.2-7.8-0.4-11.7-1.9
							c-3.8-1.5-7.3-3.6-10.5-6.3c-3.1-2.7-5.8-5.8-7.8-9.4c-2.1-3.6-3.3-7.4-3.5-11.3c-0.7-5.8-0.7-13.8,0-23.9
							c0.7-10.1,2-20.5,3.8-31c1.9-10.6,4.2-20.6,7.1-30.2C534,133.6,537.3,126.5,541,121.8L541,121.8z M589.1,47.6
							c-0.7,2.6-2,5.1-4,7.5s-4.2,4.4-6.6,5.9c-2.4,1.5-4.9,2.5-7.5,3s-4.6,0-6.3-1.4c-4.9-3.7-7.4-7.7-7.7-12
							c-0.2-4.3,0.8-8.4,3.1-12.2s5.2-7.1,8.7-9.8s6.5-4.2,9.1-4.7s4.7,0.1,6.5,1.6c1.7,1.5,3.1,3.5,4,5.9s1.5,5.2,1.6,8.2
							C590.1,42.6,589.8,45.2,589.1,47.6"/>
						<path class="st0" d="M713.9,261.7c-5.3,0-9.9-1-13.8-3c-3.8-2-6.9-4.6-9.2-7.8c-2.3-3.3-3.8-7-4.5-11.3s-0.5-8.9,0.7-13.8
							c0.7-3.3,1.9-7.6,3.5-13.1s3.3-11.4,5.1-17.8s3.4-12.8,4.9-19.2s2.5-12.2,3-17.4s0.2-9.5-0.7-12.9s-2.9-5.1-5.9-5.1
							c-3.7,0-7.6,1.2-11.5,3.7c-4,2.4-8,5.8-12,9.9c-4.1,4.2-8.1,9-12.2,14.5c-4.1,5.5-8.1,11.1-12,16.9
							c-2.1,7.9-3.8,14.8-5.2,20.7s-2.6,11.3-3.7,16c-1,4.8-2,8.9-3,12.6c-0.9,3.6-1.7,7-2.4,10.3c-0.7,2.3-2.8,4.6-6.3,6.8
							s-7.2,4-11.2,5.4c-4,1.4-7.4,2.1-10.3,2.1c-2.9,0-4.1-1-3.7-3.1c0.2-1.4,1-4.5,2.3-9.4s2.8-10.6,4.5-17.3s3.5-13.7,5.4-21.1
							c1.9-7.4,3.6-14.5,5.2-21.3c1.2-5.3,2.4-11.3,3.8-17.8c1.2-5.6,2.6-12.1,4.4-19.5c1.7-7.4,3.8-15.6,6.1-24.4
							c1.6-1.4,3.3-2.5,5.1-3.3c1.7-0.8,3.5-1.5,5.4-1.9c1.9-0.7,3.8-1.2,5.9-1.4c1.9,0,3.7,0.1,5.6,0.3c1.6,0.2,3.3,0.6,5.1,1.2
							c1.7,0.6,3.3,1.5,4.7,2.6c-0.7,1.6-1.5,3.9-2.4,6.8c-0.9,2.9-1.9,6-2.8,9.2c-0.9,3.7-2.1,7.6-3.5,11.5
							c3-4.2,6.5-8.4,10.3-12.7s8-8.2,12.6-11.7c4.5-3.5,9.4-6.3,14.5-8.5s10.3-3.3,15.7-3.3c4.4,0,8.4,1.3,11.9,3.8
							c3.5,2.6,6.2,6.1,8.2,10.6s3.1,9.9,3.5,16.2c0.3,6.3-0.5,13.1-2.6,20.6l-3.8,15.3c-1.2,4.9-2.6,10.6-4.4,17.3
							c-1.7,6.6-3.9,13.9-6.5,21.8c-1.4,5.1-1.9,9.5-1.6,13.2c0.3,3.7,2.6,5.6,6.8,5.6s9.5-2.6,15.9-7.7
							c6.4-5.1,12.8-11.3,19.4-18.5c6.5-7.2,12.7-14.6,18.5-22.1c5.8-7.6,10.2-13.7,13.2-18.3c2.1-3,4.1-5,5.9-5.9
							c1.9-0.9,3.3-1,4.4-0.3c1,0.7,1.6,2.3,1.6,4.7s-0.9,5.5-2.8,9.2c-1.6,3.3-4.1,7.6-7.5,12.9c-3.4,5.3-7.4,11-12,17.1
							c-4.6,6-9.6,12.1-15,18.3s-10.9,11.7-16.7,16.7s-11.6,9.1-17.3,12.2C724.4,260.1,719,261.7,713.9,261.7L713.9,261.7z"/>
						<path class="st0" d="M920.9,194.8c-4.4,6.4-29.5,33.7-39.4,41.3s-20,13.7-30.3,18.3s-20.4,7-30.2,7c-5.1,0-10.6-1.2-16.6-3.7
							c-5.9-2.4-11.3-6.2-16.2-11.3s-8.8-11.7-11.7-19.9c-2.9-8.1-3.8-18-2.6-29.6c0.9-9.5,3.9-19.6,8.9-30.2
							c5-10.6,11.2-20.3,18.5-29.1s15.6-16.2,24.8-22s18.4-8.7,27.7-8.7c8.8,0,15.2,2.2,19.2,6.6s5.7,9.9,5.2,16.4
							c-0.7,7.2-2.7,13.8-6.1,19.9c-3.4,6-7.4,11.5-12,16.4s-9.6,9.3-14.8,13.2c-5.2,4-10.2,7.6-14.8,10.8c-5.1,3.5-10,6.8-14.6,9.9
							c-4.6,3.1-8.7,6-12.2,8.5c0.2,5.8,1.3,10.7,3.1,14.6c1.9,4,4.2,7.1,7,9.6c2.8,2.4,6,4.2,9.6,5.2s7.3,1.6,11,1.6
							c7.9,0,16.2-2.5,24.8-7.5s17-11,25.3-18.1s21.6-21,22.6-21.9c2.3-2.2,9-8.7,10.7-9.1c1.7-0.3,3.1-0.1,4.2,0.7
							c1,0.8,1.6,2.2,1.6,4.2S922.5,192.2,920.9,194.8 M844,126.7c-2.8,0-6.1,1.4-9.9,4.2c-3.8,2.8-7.6,6.8-11.3,12
							s-7.2,11.6-10.5,19.2c-3.3,7.6-5.7,16.2-7.3,26c2.8-2.1,5.8-4.2,9.1-6.5c3.3-2.2,6.5-4.6,9.8-7.1c10-7.7,17-14.4,20.9-20.2
							s6.2-10.8,6.6-15c0.5-4.4,0-7.6-1.4-9.6C848.5,127.7,846.5,126.7,844,126.7L844,126.7z"/>
					</g>
				</g>
			</g>
		</g>
		<path class="st1" d="M26.3,229.6c0,0,83.2,42.6,177,44.4c100.2,2,169.6-46.2,330.6-44.9c57.1,0.5,145.6,17.6,172.2,28.6
			c15.9,6.6,132.8,36.5,256.1-13.2"/>
		<path class="st2" d="M27.8,226.7c0,0,81.6,41.7,175.4,43.5c100.2,2,169.6-46.2,330.6-44.9c57.1,0.5,145.6,17.6,172.2,28.6
			c15.9,6.6,127.9,38.4,251.2-11.3"/>
		<g>
			<g>
				<g id="XMLID_1_">
					<g>
						<path class="st3" d="M1067.7,188.3c16.3,1.8,68.5,32.8,72.3,55.4c0,0.1,0,0.2-0.1,0.3c-0.8,0.8-6.4-0.3-10.2-1.5
							c-2.7,0.4-5.9,0.5-10,0.3c-6.9-0.4-15.7,0.5-23.1,0c-9.7-0.7-17.9-5.3-19.8-5c-0.3,0.1-3.5-0.4-8.8-0.3l-0.7,2.1
							c-41.7-13.1-106.9,2.3-106.9,2.3c1,0.4,2.3,0.8,3.8,1.3l-8.9-0.1H954v-1.2l0,0c0,0,0.5-2,1.3-5.6h0.2
							c38.5-4.5,70.1-26.3,95.7-48.7C1052.8,186.2,1065.8,188.2,1067.7,188.3z"/>
						<path class="st3" d="M1058.4,180.5c-25.3,26.4-60.5,50.9-102.9,55.9h-0.2c0.1-0.4,0.2-0.9,0.3-1.4l0,0c0.7-0.7,2-2.2,3.7-4.3
							l0.8,0.4c1.3-0.3,18.5-4.8,38.1-35.7C1014.9,184.6,1035.5,176.8,1058.4,180.5z"/>
						<path class="st3" d="M959.3,230.7c-1.8,2.1-3,3.6-3.7,4.3c0.2-0.9,0.4-1.8,0.6-2.8v-0.1c3.9-15.6,23.7-87.9,67-123.5
							c2.2,15.5,0.6,33.1-7.2,52c-5.9,14.3-11.9,25.7-17.7,34.8C979.6,207.3,965.9,223,959.3,230.7z"/>
						<path class="st3" d="M1108.4,90.4c2.1,0.8,5.7,2.9,1,22.3c-3.3,13.6-24.8,47.6-52,75.4c-24.4-3.9-47.1-0.1-65,11.2
							c6.2-9.6,14.4-20.7,20.7-35.8c8.4-19.9,13.7-39,11.5-55.3c20.3-16.3,45.2-25.3,75.7-18.7C1101.6,89.8,1107.9,90.2,1108.4,90.4
							z"/>
						<path class="st3" d="M964.2,243.2c-1.6-0.5-2.8-0.9-3.8-1.3c0,0,65.2-15.5,106.9-2.3c16.6,5.2,29.5,15,33.1,32
							c0.5,2.5-25.4-4.8-27.6-5.4C1056.3,261.2,985.3,249.4,964.2,243.2z"/>
						<path class="st3" d="M959.3,230.7c6.6-7.7,20.4-23.4,39-35.3c-19.7,30.9-36.8,35.4-38.1,35.7L959.3,230.7z"/>
						<path class="st3" d="M1023.1,108.6c-43.3,35.6-63.1,107.9-67,123.5c3.8-19.9,10.4-65.6-2.7-97.4l-0.1-11.8h2
							c0,0,10.7-82.2,25.5-79.2C991.3,45.9,1017.9,71.1,1023.1,108.6z"/>
						<path class="st3" d="M953.4,134.7c13.1,31.8,6.5,77.5,2.7,97.4c0,0,0,0,0,0.1c-0.5,1.9-0.7,2.9-0.7,2.9l0.1-0.1
							c-0.1,0.5-0.2,0.9-0.3,1.4c-0.7,3.6-1.3,5.6-1.3,5.6l0,0L953.4,134.7z"/>
						<path class="st3" d="M956.1,232.2c-0.2,1-0.4,1.9-0.6,2.8l0,0l-0.1,0.1C955.4,235.1,955.6,234.1,956.1,232.2z"/>
						<path class="st3" d="M953.4,134.7L954,242c-8.1-16.2-20.2-72.6-27.7-102.7c-0.7-2.7-10.3-28.9-8-35.4c0.5-1.3,2.7-0.2,4.3,0.4
							C938,109.3,947.6,120.6,953.4,134.7z"/>
					</g>
				</g>
			</g>
			<path class="st2" d="M954.7,241.1c0.7-3.5,40.2-192-87.1-172.6c0,0-14.5-1.2,31,15.7c8.6,3.2,15.2,10,18.4,18.6
				c1.1,3.1,2.3,6.7,3.3,10.7C929.6,150.9,944.7,220.9,954.7,241.1L954.7,241.1z"/>
			<path class="st2" d="M948.9,108.2c0,0,13.3-102.1,31.7-98.3c18.4,3.9,76.7,64.9,43.5,145.2c-33.2,80.4-69.4,87.5-69.4,87.5"/>
			<path class="st2" d="M956.4,242.6c105.3-12.4,174.6-121.4,182.2-153.4c5.5-22.8,1.4-25.3-1.1-26.3c-0.5-0.2-7.9-0.7-9.5-1.1
				C1006,35,959.4,227.5,956.5,240.3c0,0.2,0.2,0.3,0.3,0.2c11.6-12.4,109.7-145.5,220.7,4c4.3,5.8,5.7,9.2-4.8,5.7
				c-16.1-5.4-60.3-7.6-65.7-6.7c-0.4,0.1-4.7,0.3-11.9,0.6"/>
			<path class="st2" d="M957.1,242.7L957.1,242.7c4.5-0.9,153-29.6,173.4,33.2c11.9,36.7-5.9,5.5-34.1-3.1
				C1074.4,266.1,975,249.7,957.1,242.7z"/>
			<path class="st2" d="M1013.8,135.3l7.5-4.4c1.8-1.1,3-3,3-5.1c0.2-10.2-2.1-31.2-6.6-30.2C1012.6,96.7,1013.8,135.3,1013.8,135.3
				c-9.3,7.8-29.9,65.9-29.9,65.9s21.5-5,55.5-46.5c0.3-0.4,0.8-0.7,1.3-0.7c5-0.3,32.3-32.4,10.9-24.5
				c-16.6,6.2-14.7,15.6-11.7,23.5"/>
			<path class="st2" d="M1060.4,179.1c0,0,10.2,10,24.4-4.6c2.3-2.4,5.6-21-28.1,7.7c-33.7,28.7-72.8,19-72.8,19"/>
			<path class="st2" d="M1074.5,165.7"/>
		</g>
		<path class="st4" d="M541,121.8c1.2-1.4,3.4-2.6,6.6-3.5c3.3-0.9,6.6-1.7,10.1-2.3c3.5-0.6,6.7-0.9,9.6-1c2.9-0.1,4.6-0.1,5.1,0.2
			c0.2,0.2-0.3,2.7-1.7,7.3c-1.4,4.6-3.1,10.1-5.2,16.4c-2.1,6.3-4.3,12.7-6.6,19.4c-2.3,6.6-4.1,12-5.2,16.2s-2.6,8.9-4.2,14.1
			c-1.6,5.2-3.1,10.3-4.4,15.3c-1.3,5-2.2,9.7-2.6,14.1c-0.5,4.4-0.1,7.8,1,10.1c1.2,2.8,2.4,4.7,3.8,5.8c1.4,1,2.9,1.6,4.5,1.6
			c4.6,0,10.5-2.6,17.6-7.7s14.3-11.2,21.6-18.3s14.1-14.3,20.4-21.6c6.3-7.3,10.9-13.2,13.9-17.6c1.9-2.3,3.8-3.8,5.8-4.5
			s3.6-0.6,4.9,0.3c1.3,0.9,2,2.4,2.1,4.5s-0.6,4.5-2.3,7.3c-3.7,6.5-9.2,14.2-16.4,23.2s-14.9,17.6-23,25.8s-16.1,15.3-23.9,21.1
			c-7.8,5.8-14.1,8.8-19,9.1c-4,0.2-7.8-0.4-11.7-1.9c-3.8-1.5-7.3-3.6-10.5-6.3c-3.1-2.7-5.8-5.8-7.8-9.4
			c-2.1-3.6-3.3-7.4-3.5-11.3c-0.7-5.8-0.7-13.8,0-23.9c0.7-10.1,2-20.5,3.8-31c1.9-10.6,4.2-20.6,7.1-30.2
			C534,133.6,537.3,126.5,541,121.8L541,121.8z M589.1,47.6c-0.7,2.6-2,5.1-4,7.5s-4.2,4.4-6.6,5.9c-2.4,1.5-4.9,2.5-7.5,3
			s-4.6,0-6.3-1.4c-4.9-3.7-7.4-7.7-7.7-12c-0.2-4.3,0.8-8.4,3.1-12.2s5.2-7.1,8.7-9.8s6.5-4.2,9.1-4.7s4.7,0.1,6.5,1.6
			c1.7,1.5,3.1,3.5,4,5.9s1.5,5.2,1.6,8.2C590.1,42.6,589.8,45.2,589.1,47.6"/>
		<path class="st4" d="M354.1,251.2c-1.6,2.6-3.4,4.2-5.4,5.1c-2,0.8-3.7,0.9-5.2,0.3c-1.5-0.6-2.5-1.8-3-3.7s0-4.2,1.4-7
			c0.7-1.4,2.3-4.5,4.7-9.4c2.4-4.9,5.3-10.8,8.7-17.6c3.4-6.9,7-14.3,11-22.3s7.7-15.6,11.3-22.8c3.6-7.2,6.9-13.7,9.9-19.4
			s5.2-9.8,6.6-12.4c-2.6-2.3-4.3-4-5.2-5.1s-1.6-3.3-2.1-6.8c-0.5-3,0.2-7,2.1-11.9s4.3-9.6,7.3-14.1s6.4-8.4,10.1-11.7
			c3.7-3.3,7.3-4.9,10.8-4.9c6.5,0,11.1,2.1,13.8,6.3s4.2,8.5,4.7,12.9c0.5,3,0.2,6.9-0.7,11.5c-0.9,4.6-2.7,8.8-5.2,12.6
			c0.7,0.5,1.6,1,2.8,1.6s3,0.9,5.6,0.9c3.7,0,6.3-0.2,7.8-0.7s3.9-0.7,7.1-0.7c4,0,7.2,1,9.8,3s4.6,4.4,6.3,7.3s2.8,6,3.7,9.4
			c0.8,3.4,1.3,6.5,1.6,9.2c0.7,5.8-0.8,11.9-4.5,18.1s-8.3,13.1-13.6,20.6c-3.3,4.6-6.5,9.9-9.8,15.7s-4.6,11-4.2,15.7
			c0.5,3,1.3,5.5,2.4,7.3c1.2,1.9,4.4,2.8,9.8,2.8c4,0,8.3-1.5,13.1-4.4s9.6-6.6,14.6-11.2s9.9-9.5,14.8-15s9.4-10.8,13.6-16
			s7.7-9.9,10.6-14.1c2.9-4.2,5.1-7.2,6.5-9.1c1.2-1.9,2.7-3.1,4.5-3.8c1.9-0.7,3.5-0.7,4.9,0s2.3,2.1,2.6,4.2
			c0.3,2.1-0.5,4.9-2.6,8.4c-1.4,2.3-3.8,6-7.1,11.2c-3.4,5.1-7.4,10.8-12.2,17.1s-10.1,12.7-15.9,19.4
			c-5.8,6.6-11.9,12.7-18.3,18.1c-6.4,5.5-12.8,9.9-19.2,13.4c-6.4,3.5-12.5,5.2-18.3,5.2c-6,0-11-1.2-15-3.5s-7.1-5.2-9.6-8.5
			c-2.4-3.4-4.2-7.1-5.2-11.2c-1-4.1-1.5-7.8-1.2-11.3c0.2-2.8,1-5.8,2.3-8.9c1.3-3.1,2.8-6.4,4.5-9.8c1.7-3.4,3.6-6.7,5.6-10.1
			c2-3.4,3.8-6.7,5.4-9.9c4-6.7,7.1-12.5,9.6-17.3c2.4-4.8,3.7-8.8,3.7-12c0-2.1-0.5-4-1.4-5.6s-2.4-2.4-4.5-2.4
			c-1.4,0-2.4,0.1-3,0.2c-0.6,0.1-1.2,0.2-1.7,0.2s-1.4,0.1-2.4,0.2c-1,0.1-2.6,0.2-4.7,0.2c-3,0-5.6-0.5-7.7-1.4s-4.1-1.6-5.9-2.1
			c-0.9,1.6-3,5.1-6.3,10.5c-3.3,5.3-7,11.6-11.3,18.8s-8.8,14.8-13.6,22.7c-4.8,7.9-9.2,15.3-13.4,22.1
			c-4.2,6.9-7.7,12.7-10.6,17.4C356.6,247.4,354.8,250.3,354.1,251.2L354.1,251.2z"/>
		<path class="st0" d="M800.1,165.8c-1-0.7-2.5-0.6-4.4,0.3c-1.9,0.9-3.8,2.9-5.9,5.9c-3,4.6-7.4,10.8-13.2,18.3
			c-5.8,7.6-12,14.9-18.5,22.1c-6.5,7.2-13,13.4-19.4,18.5s-11.7,7.7-15.9,7.7s-6.5-1.9-6.8-5.6c-0.3-3.7,0.2-8.1,1.6-13.2
			c2.6-7.9,4.7-15.2,6.5-21.8c1.7-6.6,3.2-12.4,4.4-17.3l3.8-15.3c2.1-7.4,3-14.3,2.6-20.6c-0.3-6.3-1.5-11.7-3.5-16.2
			c-2-4.5-4.7-8.1-8.2-10.6c-3.5-2.6-7.4-3.8-11.9-3.8c-5.3,0-10.6,1.1-15.7,3.3c-5.1,2.2-9.9,5.1-14.5,8.5
			c-4.5,3.5-8.7,7.4-12.6,11.7c-3.8,4.3-7.3,8.5-10.3,12.7c1.4-4,2.6-7.8,3.5-11.5c0.9-3.3,1.9-6.3,2.8-9.2c0.9-2.9,1.7-5.2,2.4-6.8
			c-1.4-1.2-3-2-4.7-2.6s-3.4-1-5.1-1.2c-1.9-0.2-3.7-0.3-5.6-0.3c-2.1,0.2-4.1,0.7-5.9,1.4c-1.9,0.5-3.7,1.1-5.4,1.9
			s-3.4,1.9-5.1,3.3c-2.3,8.8-4.4,17-6.1,24.4c-1.7,7.4-3.2,13.9-4.4,19.5c-1.4,6.5-2.7,12.4-3.8,17.8c-1.6,6.7-3.4,13.8-5.2,21.3
			c-1.9,7.4-3.7,14.5-5.4,21.1s-3.3,12.4-4.5,17.3c-1.3,4.9-2,8-2.3,9.4c-0.5,2.1,0.8,3.1,3.7,3.1s6.3-0.7,10.3-2.1
			c4-1.4,7.7-3.2,11.2-5.4s5.6-4.5,6.3-6.8c0.7-3.3,1.5-6.7,2.4-10.3s1.9-7.8,3-12.6c1-4.8,2.3-10.1,3.7-16s3.1-12.8,5.2-20.7
			c4-5.8,8-11.4,12-16.9c4.1-5.5,8.1-10.3,12.2-14.5c4.1-4.2,8.1-7.5,12-9.9c4-2.4,7.8-3.7,11.5-3.7c3,0,5,1.7,5.9,5.1
			c0.9,3.4,1.2,7.7,0.7,12.9s-1.5,11-3,17.4s-3.1,12.8-4.9,19.2c-1.7,6.4-3.4,12.3-5.1,17.8c-1.6,5.5-2.8,9.8-3.5,13.1
			c-1.2,4.9-1.4,9.5-0.7,13.8c0.1,0.8,0.3,1.5,0.5,2.3c0.5,0.1,1.1,0.4,1.6,0.8c0.4,0.3,0.9,0.6,1.3,0.9c5.7,0.8,11.6,1.7,17.4,3.1
			c2.2-1.6,5.8-1.8,8,1c0.4,0.6,0.9,1.1,1.3,1.6c5.2,1.8,10.1,4.2,14.5,7.4c5.4-3.1,10.9-7,16.5-11.7c5.8-5,11.4-10.6,16.7-16.7
			c5.3-6.2,10.3-12.3,15-18.3c4.6-6,8.7-11.7,12-17.1s5.9-9.6,7.5-12.9c1.9-3.7,2.8-6.8,2.8-9.2C801.7,168,801.2,166.5,800.1,165.8z
			"/>
		<path class="st4" d="M173.1,261.8c-5.3,0-9.9-1-13.8-3c-3.8-2-6.9-4.6-9.2-7.8c-2.3-3.3-3.8-7-4.5-11.3s-0.5-8.9,0.7-13.8
			c0.7-3.3,1.9-7.6,3.5-13.1s3.3-11.4,5.1-17.8s3.4-12.8,4.9-19.2s2.5-12.2,3-17.4s0.2-9.5-0.7-12.9s-2.9-5.1-5.9-5.1
			c-3.7,0-7.6,1.2-11.5,3.7c-4,2.4-8,5.8-12,9.9c-4.1,4.2-8.1,9-12.2,14.5s-8.1,11.1-12,16.9c-2.1,7.9-3.8,14.8-5.2,20.7
			c-1.4,5.9-2.6,11.3-3.7,16c-1,4.8-2,8.9-3,12.6c-0.9,3.6-1.7,7-2.4,10.3c-0.7,2.3-2.8,4.6-6.3,6.8s-7.2,4-11.2,5.4
			c-4,1.4-7.4,2.1-10.3,2.1s-4.1-1-3.7-3.1c0.2-1.4,1-4.5,2.3-9.4c1.3-4.9,2.8-10.6,4.5-17.3c1.7-6.6,3.5-13.7,5.4-21.1
			c1.9-7.4,3.6-14.5,5.2-21.3c1.2-5.3,2.4-11.3,3.8-17.8c1.2-5.6,2.6-12.1,4.4-19.5c1.7-7.4,5.1-20.1,7.5-28.9
			c1.6-1.4,3.3-2.5,5.1-3.3c1.7-0.8,3.5-1.5,5.4-1.9c1.9-0.7,3.8-1.2,5.9-1.4c1.9,0,3.7,0.1,5.6,0.3c1.6,0.2,3.3,0.6,5.1,1.2
			c1.7,0.6,3.3,1.5,4.7,2.6c-0.7,1.6-1.5,3.9-2.4,6.8c-0.9,2.9-3.2,10.5-4.2,13.8c-0.9,3.7-2.1,7.6-3.5,11.5
			c3-4.2,6.5-8.4,10.3-12.7s8-8.2,12.6-11.7c4.5-3.5,9.4-6.3,14.5-8.5s10.3-3.3,15.7-3.3c4.4,0,8.4,1.3,11.9,3.8s6.2,6.1,8.2,10.6
			s3.1,9.9,3.5,16.2c0.3,6.3-0.5,13.1-2.6,20.6l-3.8,15.3c-1.2,4.9-2.6,10.6-4.4,17.3c-1.7,6.6-3.9,13.9-6.5,21.8
			c-1.4,5.1-1.9,9.5-1.6,13.2c0.3,3.7,2.6,5.6,6.8,5.6s9.5-2.6,15.9-7.7c6.4-5.1,12.8-11.3,19.4-18.5c6.5-7.2,12.7-14.6,18.5-22.1
			c5.8-7.6,10.2-13.7,13.2-18.3c2.1-3,4.1-5,5.9-5.9c1.8-0.9,3.3-1,4.4-0.3s1.6,2.3,1.6,4.7s-0.9,5.5-2.8,9.2
			c-1.6,3.3-4.1,7.6-7.5,12.9c-3.4,5.3-7.4,11-12,17.1c-4.6,6-9.6,12.1-15,18.3c-5.3,6.2-10.9,11.7-16.7,16.7s-11.6,9.1-17.3,12.2
			C183.7,260.3,178.2,261.8,173.1,261.8L173.1,261.8z"/>
		<path class="st4" d="M713.9,261.8c-5.3,0-9.9-1-13.8-3c-3.8-2-6.9-4.6-9.2-7.8c-2.3-3.3-3.8-7-4.5-11.3s-0.5-8.9,0.7-13.8
			c0.7-3.3,1.9-7.6,3.5-13.1s3.3-11.4,5.1-17.8s3.4-12.8,4.9-19.2s2.5-12.2,3-17.4s0.2-9.5-0.7-12.9s-2.9-5.1-5.9-5.1
			c-3.7,0-7.6,1.2-11.5,3.7c-4,2.4-8,5.8-12,9.9c-4.1,4.2-8.1,9-12.2,14.5c-4.1,5.5-8.1,11.1-12,16.9c-2.1,7.9-3.8,14.8-5.2,20.7
			s-2.6,11.3-3.7,16c-1,4.8-2,8.9-3,12.6c-0.9,3.6-1.7,7-2.4,10.3c-0.7,2.3-2.8,4.6-6.3,6.8s-7.2,4-11.2,5.4
			c-4,1.4-7.4,2.1-10.3,2.1c-2.9,0-4.1-1-3.7-3.1c0.2-1.4,1-4.5,2.3-9.4s2.8-10.6,4.5-17.3s3.5-13.7,5.4-21.1
			c1.9-7.4,3.6-14.5,5.2-21.3c1.2-5.3,2.4-11.3,3.8-17.8c1.2-5.6,2.6-12.1,4.4-19.5c1.7-7.4,3.8-15.6,6.1-24.4
			c1.6-1.4,3.3-2.5,5.1-3.3c1.7-0.8,3.5-1.5,5.4-1.9c1.9-0.7,3.8-1.2,5.9-1.4c1.9,0,3.7,0.1,5.6,0.3c1.6,0.2,3.3,0.6,5.1,1.2
			c1.7,0.6,3.3,1.5,4.7,2.6c-0.7,1.6-1.5,3.9-2.4,6.8c-0.9,2.9-1.9,6-2.8,9.2c-0.9,3.7-2.1,7.6-3.5,11.5c3-4.2,6.5-8.4,10.3-12.7
			s8-8.2,12.6-11.7c4.5-3.5,9.4-6.3,14.5-8.5s10.3-3.3,15.7-3.3c4.4,0,8.4,1.3,11.9,3.8s6.2,6.1,8.2,10.6s3.1,9.9,3.5,16.2
			c0.3,6.3-0.5,13.1-2.6,20.6l-3.8,15.3c-1.2,4.9-2.6,10.6-4.4,17.3c-1.7,6.6-3.9,13.9-6.5,21.8c-1.4,5.1-1.9,9.5-1.6,13.2
			c0.3,3.7,2.6,5.6,6.8,5.6s9.5-2.6,15.9-7.7c6.4-5.1,12.8-11.3,19.4-18.5c6.5-7.2,12.7-14.6,18.5-22.1c5.8-7.6,10.2-13.7,13.2-18.3
			c2.1-3,4.1-5,5.9-5.9c1.9-0.9,3.3-1,4.4-0.3c1,0.7,1.6,2.3,1.6,4.7s-0.9,5.5-2.8,9.2c-1.6,3.3-4.1,7.6-7.5,12.9
			c-3.4,5.3-7.4,11-12,17.1c-4.6,6-9.6,12.1-15,18.3s-10.9,11.7-16.7,16.7s-11.6,9.1-17.3,12.2C724.4,260.3,719,261.8,713.9,261.8
			L713.9,261.8z"/>
		<path class="st2" d="M685.3,247.4c0-0.2,43.5,13.8,44,13.4"/>
	</g>
	<line class="st5" x1="952" y1="243.9" x2="956.7" y2="241.9"/>
</g>
<g id="レイヤー_2">
</g>
</svg>
